<svg id="Calque_1" data-name="Calque 1" xmlns="http://www.w3.org/2000/svg" viewBox="0 0 1029.6 552.1"><defs><style>.cls-1,.cls-2,.cls-3,.cls-4{fill:none;stroke:#000;stroke-miterlimit:10;}.cls-1{stroke-width:0.5px;}.cls-1,.cls-2,.cls-4{opacity:0.18;}.cls-2,.cls-3{stroke-width:0.25px;}.cls-3{opacity:0.2;}</style></defs><path class="cls-1" d="M291,428l6-4,127-22v-7.5l-2-7.5,2-12.55,2-.45-2-8-2-8v-4l2-7-2-3,2-4-4-2s2-10,4-15v-8h2v4.3l3,2.7s22,1,18,18H431l-2,2,2,4v6l-1,7v5l2,10,4,8,2,10,2,9h16l87,5,70.18,5.47L620,412l105,8,30.5,3.5L756,367s-30-38-30-42c-1,0-5-3-5-3l-14-1-5,4,6,3s-26,12-29,12a4.38,4.38,0,0,1-3-1l-2-2,1-16s11-11,21-7a3.55,3.55,0,0,1,2,3l-1,2,1,2,5-5-3-2,4-5,1,6h4v-4l6-4s8-6,11-6a18.93,18.93,0,0,1,6,4v13l-1,1,27,37s6-5,12-5c4,2,4,3,4,3s4,4-7,13c0,4-1,59-1,59l47,5,97,11,77,12-5,15-70,65s-304-29-364-40c-7-1-236-44-253-56C292,434,291,428,291,428Z" transform="translate(-165.98 -225.87)"/><path class="cls-1" d="M424,402v5.13s-8,1.87-9.5,4.37c0,2-.93,4.5,3.29,6,2.42,1,31.71,0,31.71,0s3-8-8-11A22.75,22.75,0,0,1,440,401" transform="translate(-165.98 -225.87)"/><path class="cls-1" d="M755.5,425.5v4.86s-6,1.14-5,4.14a8.25,8.25,0,0,0,2.44,4s-18.44-2-21.44,3-1,12-1,12,28,9,45-2c1-4,0-9.14,0-9.14s-1-3.86-8-3.86a28,28,0,0,0,1-6l-1-2L766,426" transform="translate(-165.98 -225.87)"/><path class="cls-1" d="M291,428s116,55,618,89c13-6,78-63,78-63" transform="translate(-165.98 -225.87)"/><line class="cls-1" x1="743.02" y1="291.13" x2="746.02" y2="308.13"/><polygon class="cls-2" points="316.02 150.13 418.02 145.13 409.02 6.13 304.02 11.13 316.02 150.13"/><polyline class="cls-3" points="309.02 10.13 308.02 2.13 406.02 0.13 406.02 6.27"/><line class="cls-2" x1="0.02" y1="187.13" x2="258.02" y2="148.57"/><line class="cls-2" x1="266.02" y1="148.13" x2="315.25" y2="141.27"/><line class="cls-2" x1="418.02" y1="135.3" x2="540.15" y2="141.27"/><path class="cls-1" d="M391.5,521.5C372,500.39,360,486,340,464c-18-7-37-10-55.5-12.5.73,1.08,1.46,2.16,2.24,3.2a23,23,0,0,0-2.24-3.2C296,465,302,483,315,495c16,8,33,3,50,1,4,3,6,7,9,10,6,5,10,11.59,15.5,16.5" transform="translate(-165.98 -225.87)"/><polygon class="cls-1" points="193.17 308.13 258.02 283.13 262.1 283.13 266.02 291.13 190.52 319.63 139.55 308.13 139.55 297.27 193.17 308.13"/><polyline class="cls-1" points="146.52 266.63 139.55 297.27 189.29 271.33"/><polyline class="cls-1" points="139.55 308.13 129.02 391.89 134.28 391.89 146.52 309.7"/><path class="cls-1" d="M428.09,509S386,495.5,368.77,492.5" transform="translate(-165.98 -225.87)"/><line class="cls-1" x1="151.47" y1="269.88" x2="146.52" y2="293.64"/><line class="cls-1" x1="197.69" y1="306.38" x2="204.58" y2="275.78"/><line class="cls-1" x1="210.47" y1="281.76" x2="204.58" y2="303.73"/><polyline class="cls-1" points="190.52 319.63 181.52 417.63 189.29 417.63 197.69 316.92 228.52 348.63 232.44 347.21 202.78 315"/><line class="cls-1" x1="158.38" y1="271.94" x2="169.29" y2="281.76"/><path class="cls-4" d="M338.79,505.8" transform="translate(-165.98 -225.87)"/><polyline class="cls-1" points="235.81 303.73 292.52 368.63 287.55 368.63 232.44 303.8"/><line class="cls-1" x1="172.8" y1="279.93" x2="164.42" y2="273.32"/><path class="cls-1" d="M772.51,768l3.43-182.15S774,572,773,570c-2-35-24.49-36-24.49-36H693.62c-8.39,2-59.62-6-65.62-7-18-1-14.55,2.6-14.55,2.6l12.25,46V594.5L618,768l-1.54,2.5-1,5a8.8,8.8,0,0,0,11.65,0l.7-5-2.35-5L632,650l.5-15.64V631.5L759.23,650l2.46,18.25L632.5,647.41" transform="translate(-165.98 -225.87)"/><polygon class="cls-1" points="466.52 405.63 466.52 354.36 479.52 385.63 466.52 405.63"/><path class="cls-1" d="M649.45,605.87l-17-39.93s39,30.56,56,31.56c8,1,35.81,3.37,54.9-5.32,7.2-5.36,20.94-11.95,20.94-11.95l2.66,8.68v63.83l.5,16.76L765,768" transform="translate(-165.98 -225.87)"/><line class="cls-1" x1="593.25" y1="424.13" x2="601.52" y2="409.63"/><line class="cls-1" x1="595.71" y1="442.38" x2="601.52" y2="431.63"/><path class="cls-1" d="M775.5,627.5l13-33s2-9-13-9" transform="translate(-165.98 -225.87)"/><polyline class="cls-1" points="496.65 426.4 513.02 463.13 521 463.13 503.98 427.58"/><polyline class="cls-1" points="616.06 398.79 636.02 484.13 643.02 482.13 620.37 384.08"/><line class="cls-1" x1="479.52" y1="385.63" x2="499.79" y2="362.63"/><line class="cls-2" x1="686.44" y1="144.7" x2="1029.59" y2="158.13"/><polyline class="cls-1" points="743.02 307.84 743.02 309.94 751.21 385.63 746.02 385.63 737.93 308.13"/><path class="cls-1" d="M910,442s11.5-10.5-87.5-16.5c-6,3-8.18,5.65-8.18,5.65" transform="translate(-165.98 -225.87)"/><path class="cls-1" d="M888.9,537a21.26,21.26,0,0,1,4.6-3.54L866.21,660l-7.66-2.47,15-59,13-56v-3Z" transform="translate(-165.98 -225.87)"/><path class="cls-1" d="M808.5,541.5l43.93,10.39S871.5,555.5,880,545.5l6.81-6.87" transform="translate(-165.98 -225.87)"/><path class="cls-1" d="M785.28,522.5l1.22,66c4.42,1.55,4,8,4,9s-15.63,45.25-15.63,45.25" transform="translate(-165.98 -225.87)"/><path class="cls-1" d="M808.5,523.83l1,117.67,1,.32,85.55,26.43s.58,8.82,0,10.54-7.15,0-7.15,0l-92.81-26.52" transform="translate(-165.98 -225.87)"/><line class="cls-1" x1="623.52" y1="432.63" x2="608.3" y2="448.32"/><path class="cls-1" d="M767.15,683.4l-9.06,9.44a2.65,2.65,0,0,1-3.46.31l-3.57-2.59a2.87,2.87,0,0,1-1.12-2.95l1.31-6a4,4,0,0,1,1.08-2L767.5,664.5" transform="translate(-165.98 -225.87)"/><polyline class="cls-1" points="608.89 419.89 617.52 421.63 608.15 432.99"/><path class="cls-1" d="M613.18,411.47s-.68-4,7.32-4c4,0,54.31,5.5,54.31,5.5a6.27,6.27,0,0,1,4.44,3.51" transform="translate(-165.98 -225.87)"/><path class="cls-1" d="M566.71,497s-1.93,3.05,3.93,3.8c1.18.15,4.22.58,8.32,1.16,16.18,2.31,48.87,7.09,48.87,7.09s9.67-.7,11.17-3.1" transform="translate(-165.98 -225.87)"/><polyline class="cls-1" points="412.98 276.04 392.52 352.63 395.13 352.63 416.23 277.1"/><polyline class="cls-1" points="511.26 284.29 516.13 308.13 518.7 306.38 514.98 284.69"/><line class="cls-1" x1="488.35" y1="281.76" x2="483.47" y2="303.73"/><line class="cls-1" x1="492.83" y1="283.13" x2="485.91" y2="304.68"/><path class="cls-1" d="M499.83,403.52s.54-3,5.11-2.52c4.12,1,47.56,1.5,47.56,1.5s3,.1,4,4.55" transform="translate(-165.98 -225.87)"/><line class="cls-1" x1="368.57" y1="266.63" x2="358.7" y2="297.27"/><line class="cls-1" x1="372.32" y1="266.63" x2="362.18" y2="296.21"/><line class="cls-1" x1="394.1" y1="271.07" x2="404.37" y2="308.25"/><line class="cls-1" x1="397.85" y1="271.07" x2="406.21" y2="301.38"/><path class="cls-1" d="M811.51,642.12,834.88,621a5,5,0,0,0,1.62-3.66v-4a4.91,4.91,0,0,0-3.07-4.56l-.06,0a4.92,4.92,0,0,0-5.17.9l-18.83,17" transform="translate(-165.98 -225.87)"/><line class="cls-2" x1="362.18" y1="147.86" x2="365.33" y2="176.28"/><line class="cls-2" x1="368.57" y1="147.55" x2="373.02" y2="176.13"/><polyline class="cls-1" points="266.16 246.63 272.57 326.65 250.52 320.63"/><path class="cls-1" d="M411.5,544.5l-5.89-1.57a2,2,0,0,0-2.33,1.71L403,547.3l12.5,3.2" transform="translate(-165.98 -225.87)"/><polyline class="cls-1" points="255.84 326.65 264.52 329.63 260.18 331.62"/><polyline class="cls-1" points="258.02 333.89 232.44 347.21 225.52 350.01 225.52 357.25 263.27 340.06"/><line class="cls-1" x1="264.52" y1="329.63" x2="272.57" y2="326.65"/><polyline class="cls-1" points="266.02 338.3 274.27 333.89 455.52 381.63"/><polyline class="cls-1" points="283.89 249.25 290.64 326.65 459.72 368.63"/></svg>